<svg width="800" height="1200" viewBox="0 0 800 1200" xmlns="http://www.w3.org/2000/svg">
  <!-- Phone background -->
  <rect width="800" height="1200" fill="#f5f5f5"/>
  
  <!-- Phone bezel -->
  <rect x="40" y="30" width="720" height="1140" rx="40" fill="#1a1a1a" stroke="#000" stroke-width="2"/>
  
  <!-- Screen -->
  <rect x="60" y="60" width="680" height="1080" rx="30" fill="#ffffff"/>
  
  <!-- Status bar -->
  <rect x="60" y="60" width="680" height="50" rx="30" fill="#0066cc"/>
  <text x="400" y="90" font-size="24" font-weight="bold" fill="white" text-anchor="middle">9:41</text>
  
  <!-- Header section -->
  <rect x="60" y="110" width="680" height="80" fill="#0066cc"/>
  <text x="400" y="155" font-size="32" font-weight="bold" fill="white" text-anchor="middle">SDO Portal</text>
  <text x="400" y="180" font-size="14" fill="#e0e0e0" text-anchor="middle">PESCO Staff Portal</text>
  
  <!-- Main content area with gradient effect -->
  <defs>
    <linearGradient id="bgGradient" x1="0%" y1="0%" x2="0%" y2="100%">
      <stop offset="0%" style="stop-color:#f8f9fa;stop-opacity:1" />
      <stop offset="100%" style="stop-color:#e8eaed;stop-opacity:1" />
    </linearGradient>
  </defs>
  
  <rect x="60" y="190" width="680" height="950" fill="url(#bgGradient)"/>
  
  <!-- Portal cards -->
  <!-- Card 1: Billing -->
  <rect x="90" y="220" width="300" height="140" rx="12" fill="white" stroke="#ddd" stroke-width="1" filter="drop-shadow(0 2px 4px rgba(0,0,0,0.1))"/>
  <circle cx="130" cy="255" r="25" fill="#ff6b6b"/>
  <text x="130" y="262" font-size="20" fill="white" text-anchor="middle" font-weight="bold">₨</text>
  <text x="200" y="260" font-size="18" font-weight="bold" fill="#333">Billing</text>
  <text x="200" y="285" font-size="12" fill="#666">View & Pay Bills</text>
  
  <!-- Card 2: Support -->
  <rect x="410" y="220" width="300" height="140" rx="12" fill="white" stroke="#ddd" stroke-width="1" filter="drop-shadow(0 2px 4px rgba(0,0,0,0.1))"/>
  <circle cx="450" cy="255" r="25" fill="#51cf66"/>
  <text x="450" y="270" font-size="20" fill="white" text-anchor="middle" font-weight="bold">✓</text>
  <text x="520" y="260" font-size="18" font-weight="bold" fill="#333">Support</text>
  <text x="520" y="285" font-size="12" fill="#666">Customer Service</text>
  
  <!-- Card 3: Reports -->
  <rect x="90" y="390" width="300" height="140" rx="12" fill="white" stroke="#ddd" stroke-width="1" filter="drop-shadow(0 2px 4px rgba(0,0,0,0.1))"/>
  <circle cx="130" cy="425" r="25" fill="#4dabf7"/>
  <text x="130" y="440" font-size="20" fill="white" text-anchor="middle" font-weight="bold">📊</text>
  <text x="200" y="430" font-size="18" font-weight="bold" fill="#333">Reports</text>
  <text x="200" y="455" font-size="12" fill="#666">View Analytics</text>
  
  <!-- Card 4: Settings -->
  <rect x="410" y="390" width="300" height="140" rx="12" fill="white" stroke="#ddd" stroke-width="1" filter="drop-shadow(0 2px 4px rgba(0,0,0,0.1))"/>
  <circle cx="450" cy="425" r="25" fill="#ffa94d"/>
  <text x="450" y="440" font-size="20" fill="white" text-anchor="middle" font-weight="bold">⚙</text>
  <text x="520" y="430" font-size="18" font-weight="bold" fill="#333">Settings</text>
  <text x="520" y="455" font-size="12" fill="#666">Configuration</text>
  
  <!-- Card 5: Admin -->
  <rect x="90" y="560" width="300" height="140" rx="12" fill="white" stroke="#ddd" stroke-width="1" filter="drop-shadow(0 2px 4px rgba(0,0,0,0.1))"/>
  <circle cx="130" cy="595" r="25" fill="#e599f7"/>
  <text x="130" y="610" font-size="20" fill="white" text-anchor="middle" font-weight="bold">👤</text>
  <text x="200" y="600" font-size="18" font-weight="bold" fill="#333">Admin</text>
  <text x="200" y="625" font-size="12" fill="#666">Management</text>
  
  <!-- Card 6: Logout -->
  <rect x="410" y="560" width="300" height="140" rx="12" fill="white" stroke="#ddd" stroke-width="1" filter="drop-shadow(0 2px 4px rgba(0,0,0,0.1))"/>
  <circle cx="450" cy="595" r="25" fill="#a8e6cf"/>
  <text x="450" y="610" font-size="20" fill="white" text-anchor="middle" font-weight="bold">→</text>
  <text x="520" y="600" font-size="18" font-weight="bold" fill="#333">Logout</text>
  <text x="520" y="625" font-size="12" fill="#666">Sign Out</text>
  
  <!-- Bottom navigation bar -->
  <rect x="60" y="1050" width="680" height="90" fill="white" stroke="#ddd" stroke-width="1"/>
  <circle cx="200" cy="1095" r="20" fill="#0066cc"/>
  <text x="200" y="1102" font-size="12" font-weight="bold" fill="#0066cc" text-anchor="middle">Home</text>
  <text x="400" y="1102" font-size="12" fill="#999" text-anchor="middle">History</text>
  <text x="600" y="1102" font-size="12" fill="#999" text-anchor="middle">Profile</text>
  
  <!-- Notch -->
  <rect x="330" y="30" width="140" height="30" rx="0" fill="#1a1a1a"/>
</svg>